<?xml version="1.0" encoding="UTF-8"?>
<!DOCTYPE svg PUBLIC "-//W3C//DTD SVG 1.1//EN" "http://www.w3.org/Graphics/SVG/1.1/DTD/svg11.dtd">
<svg xmlns="http://www.w3.org/2000/svg" version="1.1" width="512px" height="512px" style="shape-rendering:geometricPrecision; text-rendering:geometricPrecision; image-rendering:optimizeQuality; fill-rule:evenodd; clip-rule:evenodd" xmlns:xlink="http://www.w3.org/1999/xlink">
<g><path style="opacity:1" fill="#464646" d="M 111.5,-0.5 C 205.5,-0.5 299.5,-0.5 393.5,-0.5C 431.943,8.44466 452.61,32.6113 455.5,72C 454.391,99.0834 442.391,119.75 419.5,134C 410.654,138.22 401.654,141.72 392.5,144.5C 347.485,92.9851 290.819,72.1517 222.5,82C 157.515,97.1659 112.848,135.666 88.5,197.5C 35.7243,241.042 6.05758,297.042 -0.5,365.5C -0.5,280.833 -0.5,196.167 -0.5,111.5C 8.7041,57.4517 39.3708,21.6184 91.5,4C 98.2585,2.28494 104.925,0.784944 111.5,-0.5 Z"/></g>
<g><path style="opacity:0.995" fill="#2d2d2d" d="M 393.5,-0.5 C 395.5,-0.5 397.5,-0.5 399.5,-0.5C 453.548,8.7041 489.382,39.3708 507,91.5C 508.715,98.2585 510.215,104.925 511.5,111.5C 511.5,119.5 511.5,127.5 511.5,135.5C 507.189,179.961 486.189,214.128 448.5,238C 443.036,241.068 437.369,243.568 431.5,245.5C 428.895,207.663 415.895,173.997 392.5,144.5C 401.654,141.72 410.654,138.22 419.5,134C 442.391,119.75 454.391,99.0834 455.5,72C 452.61,32.6113 431.943,8.44466 393.5,-0.5 Z"/></g>
<g><path style="opacity:1" fill="#fefefe" d="M 392.5,144.5 C 415.895,173.997 428.895,207.663 431.5,245.5C 432.33,315.354 403.664,369.187 345.5,407C 338.229,411.469 330.562,415.135 322.5,418C 313.54,418.714 307.373,414.88 304,406.5C 303.667,388.5 303.333,370.5 303,352.5C 300.791,340.077 294.957,329.744 285.5,321.5C 285.709,320.914 286.043,320.414 286.5,320C 322.277,318.052 347.444,300.886 362,268.5C 363.352,265.28 364.186,261.947 364.5,258.5C 370.569,234.672 366.402,212.672 352,192.5C 353.244,183.913 353.577,175.246 353,166.5C 352.416,161.415 351.416,156.415 350,151.5C 349.175,146.34 346.175,143.673 341,143.5C 326.887,146.558 314.22,152.558 303,161.5C 300.865,160.873 298.698,160.373 296.5,160C 266.146,159.398 235.813,159.398 205.5,160C 200.265,155.215 194.265,151.715 187.5,149.5C 180.953,146.155 173.953,144.321 166.5,144C 162.125,146.927 160.125,151.093 160.5,156.5C 158.135,161.798 157.135,167.465 157.5,173.5C 157.856,179.891 158.356,186.225 159,192.5C 139.476,221.808 138.476,251.808 156,282.5C 172.553,306.615 195.553,319.281 225,320.5C 225.667,321.167 225.667,321.833 225,322.5C 215.862,330.111 210.362,339.778 208.5,351.5C 186.454,353.31 169.121,345.144 156.5,327C 149.365,321.621 141.365,319.287 132.5,320C 126.741,323.892 126.074,328.559 130.5,334C 134.975,334.877 139.308,336.211 143.5,338C 147.788,343.41 151.955,348.91 156,354.5C 169.908,369.367 187.075,376.367 207.5,375.5C 207.666,385.839 207.5,396.172 207,406.5C 203.487,415.342 196.987,419.175 187.5,418C 125.437,389.571 89.6034,341.405 80,273.5C 77.1456,247.476 79.979,222.142 88.5,197.5C 112.848,135.666 157.515,97.1659 222.5,82C 290.819,72.1517 347.485,92.9851 392.5,144.5 Z"/></g>
<g><path style="opacity:1" fill="#141414" d="M 511.5,135.5 C 511.5,223.5 511.5,311.5 511.5,399.5C 502.296,453.548 471.629,489.382 419.5,507C 412.741,508.715 406.075,510.215 399.5,511.5C 389.833,511.5 380.167,511.5 370.5,511.5C 318.638,503.475 282.805,475.141 263,426.5C 248.365,381.435 255.365,340.101 284,302.5C 304.244,278.134 330.077,263.134 361.5,257.5C 362.726,257.52 363.726,257.853 364.5,258.5C 364.186,261.947 363.352,265.28 362,268.5C 347.444,300.886 322.277,318.052 286.5,320C 286.043,320.414 285.709,320.914 285.5,321.5C 294.957,329.744 300.791,340.077 303,352.5C 303.333,370.5 303.667,388.5 304,406.5C 307.373,414.88 313.54,418.714 322.5,418C 330.562,415.135 338.229,411.469 345.5,407C 403.664,369.187 432.33,315.354 431.5,245.5C 437.369,243.568 443.036,241.068 448.5,238C 486.189,214.128 507.189,179.961 511.5,135.5 Z"/></g>
<g><path style="opacity:1" fill="#494949" d="M 187.5,149.5 C 178.297,151.051 169.297,153.384 160.5,156.5C 160.125,151.093 162.125,146.927 166.5,144C 173.953,144.321 180.953,146.155 187.5,149.5 Z"/></g>
<g><path style="opacity:0.999" fill="#2d2d2d" d="M 364.5,258.5 C 363.726,257.853 362.726,257.52 361.5,257.5C 330.077,263.134 304.244,278.134 284,302.5C 255.365,340.101 248.365,381.435 263,426.5C 282.805,475.141 318.638,503.475 370.5,511.5C 284.167,511.5 197.833,511.5 111.5,511.5C 57.4517,502.296 21.6184,471.629 4,419.5C 2.28494,412.741 0.784944,406.075 -0.5,399.5C -0.5,388.167 -0.5,376.833 -0.5,365.5C 6.05758,297.042 35.7243,241.042 88.5,197.5C 79.979,222.142 77.1456,247.476 80,273.5C 89.6034,341.405 125.437,389.571 187.5,418C 196.987,419.175 203.487,415.342 207,406.5C 207.5,396.172 207.666,385.839 207.5,375.5C 187.075,376.367 169.908,369.367 156,354.5C 151.955,348.91 147.788,343.41 143.5,338C 139.308,336.211 134.975,334.877 130.5,334C 126.074,328.559 126.741,323.892 132.5,320C 141.365,319.287 149.365,321.621 156.5,327C 169.121,345.144 186.454,353.31 208.5,351.5C 210.362,339.778 215.862,330.111 225,322.5C 225.667,321.833 225.667,321.167 225,320.5C 195.553,319.281 172.553,306.615 156,282.5C 138.476,251.808 139.476,221.808 159,192.5C 158.356,186.225 157.856,179.891 157.5,173.5C 157.135,167.465 158.135,161.798 160.5,156.5C 169.297,153.384 178.297,151.051 187.5,149.5C 194.265,151.715 200.265,155.215 205.5,160C 235.813,159.398 266.146,159.398 296.5,160C 298.698,160.373 300.865,160.873 303,161.5C 314.22,152.558 326.887,146.558 341,143.5C 346.175,143.673 349.175,146.34 350,151.5C 351.416,156.415 352.416,161.415 353,166.5C 353.577,175.246 353.244,183.913 352,192.5C 366.402,212.672 370.569,234.672 364.5,258.5 Z"/></g>
</svg>
