<?xml version="1.0" encoding="UTF-8"?>
<!DOCTYPE svg PUBLIC "-//W3C//DTD SVG 1.1//EN" "http://www.w3.org/Graphics/SVG/1.1/DTD/svg11.dtd">
<svg xmlns="http://www.w3.org/2000/svg" version="1.1" width="512px" height="512px" style="shape-rendering:geometricPrecision; text-rendering:geometricPrecision; image-rendering:optimizeQuality; fill-rule:evenodd; clip-rule:evenodd" xmlns:xlink="http://www.w3.org/1999/xlink">
<g><path style="opacity:0.997" fill="#0b66c2" d="M 200.5,-0.5 C 237.167,-0.5 273.833,-0.5 310.5,-0.5C 349.792,1.28415 389.126,4.45082 428.5,9C 465.629,18.1298 489.796,40.9631 501,77.5C 503.724,95.0772 505.724,112.744 507,130.5C 508.645,153.982 510.145,177.316 511.5,200.5C 511.5,237.167 511.5,273.833 511.5,310.5C 510.806,318.734 510.139,327.067 509.5,335.5C 472.056,299.89 435.39,263.39 399.5,226C 398.906,225.536 398.239,225.369 397.5,225.5C 384.103,208.466 366.436,199.299 344.5,198C 326.579,195.988 309.579,198.988 293.5,207C 288.673,210.332 284.007,213.832 279.5,217.5C 277.5,214.833 275.167,212.5 272.5,210.5C 272.672,209.508 272.338,208.842 271.5,208.5C 270.833,204.5 268.5,202.167 264.5,201.5C 236.062,173.562 207.728,145.395 179.5,117C 178.906,116.536 178.239,116.369 177.5,116.5C 166.544,100.195 151.211,93.3613 131.5,96C 104.933,104.626 93.7659,122.792 98,150.5C 101.365,160.676 107.198,169.009 115.5,175.5C 123.249,183.751 131.249,191.917 139.5,200C 130.99,200.171 122.657,200.671 114.5,201.5C 111.162,202.423 108.662,204.423 107,207.5C 106.333,274.167 106.333,340.833 107,407.5C 108.277,410.938 110.443,413.605 113.5,415.5C 144.465,446.965 175.632,478.299 207,509.5C 207.464,510.094 207.631,510.761 207.5,511.5C 205.167,511.5 202.833,511.5 200.5,511.5C 161.21,509.695 121.876,506.528 82.5,502C 45.3621,492.861 21.1954,470.028 10,433.5C 4.74063,392.839 1.24063,352.173 -0.5,311.5C -0.5,274.167 -0.5,236.833 -0.5,199.5C 0.894083,176.651 2.39408,153.651 4,130.5C 5.27552,112.744 7.27552,95.0772 10,77.5C 21.2507,40.914 45.4174,18.0806 82.5,9C 121.874,4.45082 161.208,1.28415 200.5,-0.5 Z"/></g>
<g><path style="opacity:1" fill="#fdfdfe" d="M 177.5,116.5 C 189.219,140.837 184.219,161.004 162.5,177C 146.513,184.777 130.847,184.277 115.5,175.5C 107.198,169.009 101.365,160.676 98,150.5C 93.7659,122.792 104.933,104.626 131.5,96C 151.211,93.3613 166.544,100.195 177.5,116.5 Z"/></g>
<g><path style="opacity:1" fill="#0b4c8f" d="M 177.5,116.5 C 178.239,116.369 178.906,116.536 179.5,117C 207.728,145.395 236.062,173.562 264.5,201.5C 246.497,201.333 228.497,201.5 210.5,202C 208,203.167 206.167,205 205,207.5C 204.333,274.167 204.333,340.833 205,407.5C 205.504,411.02 207.337,413.52 210.5,415C 228.5,415.667 246.5,415.667 264.5,415C 268.307,413.86 270.807,411.36 272,407.5C 272.333,369.5 272.667,331.5 273,293.5C 279.83,260.007 298.997,249.507 330.5,262C 339.5,270.504 344.333,281.004 345,293.5C 345.012,332.918 345.678,372.251 347,411.5C 348.214,413.049 349.714,414.215 351.5,415C 369.833,415.667 388.167,415.667 406.5,415C 411,414.5 413.5,412 414,407.5C 414.667,365.5 414.667,323.5 414,281.5C 413.141,261.384 407.641,242.717 397.5,225.5C 398.239,225.369 398.906,225.536 399.5,226C 435.39,263.39 472.056,299.89 509.5,335.5C 508.759,357.88 507.259,380.214 505,402.5C 504.987,446.732 485.154,478.232 445.5,497C 439.952,499.072 434.285,500.738 428.5,502C 389.132,506.63 349.799,509.797 310.5,511.5C 276.167,511.5 241.833,511.5 207.5,511.5C 207.631,510.761 207.464,510.094 207,509.5C 175.632,478.299 144.465,446.965 113.5,415.5C 130.837,415.667 148.17,415.5 165.5,415C 169.02,414.496 171.52,412.663 173,409.5C 174.157,375.726 174.657,341.892 174.5,308C 174.333,275.167 174.167,242.333 174,209.5C 172.895,206.063 170.728,203.563 167.5,202C 149.836,201.5 132.17,201.333 114.5,201.5C 122.657,200.671 130.99,200.171 139.5,200C 131.249,191.917 123.249,183.751 115.5,175.5C 130.847,184.277 146.513,184.777 162.5,177C 184.219,161.004 189.219,140.837 177.5,116.5 Z"/></g>
<g><path style="opacity:1" fill="#fefefe" d="M 397.5,225.5 C 407.641,242.717 413.141,261.384 414,281.5C 414.667,323.5 414.667,365.5 414,407.5C 413.5,412 411,414.5 406.5,415C 388.167,415.667 369.833,415.667 351.5,415C 349.714,414.215 348.214,413.049 347,411.5C 345.678,372.251 345.012,332.918 345,293.5C 344.333,281.004 339.5,270.504 330.5,262C 298.997,249.507 279.83,260.007 273,293.5C 272.667,331.5 272.333,369.5 272,407.5C 270.807,411.36 268.307,413.86 264.5,415C 246.5,415.667 228.5,415.667 210.5,415C 207.337,413.52 205.504,411.02 205,407.5C 204.333,340.833 204.333,274.167 205,207.5C 206.167,205 208,203.167 210.5,202C 228.497,201.5 246.497,201.333 264.5,201.5C 268.5,202.167 270.833,204.5 271.5,208.5C 271.17,214.868 271.504,221.202 272.5,227.5C 273.107,227.376 273.44,227.043 273.5,226.5C 275.5,223.5 277.5,220.5 279.5,217.5C 284.007,213.832 288.673,210.332 293.5,207C 309.579,198.988 326.579,195.988 344.5,198C 366.436,199.299 384.103,208.466 397.5,225.5 Z"/></g>
<g><path style="opacity:1" fill="#fdfdfe" d="M 114.5,201.5 C 132.17,201.333 149.836,201.5 167.5,202C 170.728,203.563 172.895,206.063 174,209.5C 174.167,242.333 174.333,275.167 174.5,308C 174.657,341.892 174.157,375.726 173,409.5C 171.52,412.663 169.02,414.496 165.5,415C 148.17,415.5 130.837,415.667 113.5,415.5C 110.443,413.605 108.277,410.938 107,407.5C 106.333,340.833 106.333,274.167 107,207.5C 108.662,204.423 111.162,202.423 114.5,201.5 Z"/></g>
<g><path style="opacity:1" fill="#a5bdd7" d="M 271.5,208.5 C 272.338,208.842 272.672,209.508 272.5,210.5C 272.179,216.026 272.512,221.36 273.5,226.5C 273.44,227.043 273.107,227.376 272.5,227.5C 271.504,221.202 271.17,214.868 271.5,208.5 Z"/></g>
<g><path style="opacity:1" fill="#144f91" d="M 272.5,210.5 C 275.167,212.5 277.5,214.833 279.5,217.5C 277.5,220.5 275.5,223.5 273.5,226.5C 272.512,221.36 272.179,216.026 272.5,210.5 Z"/></g>
</svg>
